<svg id="Layer_1" data-name="Layer 1" xmlns="http://www.w3.org/2000/svg" xmlns:xlink="http://www.w3.org/1999/xlink" viewBox="0 0 393.34 333.84"><defs><style>.cls-1{fill:none;}.cls-2{fill:#f8f8f8;}.cls-3{clip-path:url(#clip-path);}.cls-4{opacity:0.19;}.cls-5{fill:#3a4257;}</style><clipPath id="clip-path"><circle class="cls-1" cx="196.67" cy="166.92" r="134.25"/></clipPath></defs><title>contact-icons</title><circle class="cls-2" cx="196.67" cy="166.92" r="134.25"/><g class="cls-3"><rect class="cls-4" x="19.54" y="213.53" width="354.26" height="136.11"/></g><path class="cls-5" d="M247,123.33v7.8c-1.9,7.29-3.39,14.72-5.78,21.85-11.88,35.38-27.76,69.07-44,102.61a6.37,6.37,0,0,1-1,1.05c-5.83-12.48-11.61-24.62-17.17-36.85-10.79-23.75-21.3-47.63-29-72.62-2.77-9-4.88-18.11-3.25-27.66A50.32,50.32,0,0,1,244,110.63C245.42,114.71,246,119.09,247,123.33Zm-50.37-18.12a22.44,22.44,0,0,0-.17,44.88A22.52,22.52,0,0,0,219,127.68,22.29,22.29,0,0,0,196.64,105.21Z"/></svg>