<svg id="Layer_1" data-name="Layer 1" xmlns="http://www.w3.org/2000/svg" xmlns:xlink="http://www.w3.org/1999/xlink" viewBox="0 0 393.34 333.84"><defs><style>.cls-1{fill:none;}.cls-2{fill:#f8f8f8;}.cls-3{clip-path:url(#clip-path);}.cls-4{opacity:0.19;}.cls-5{fill:#3a4257;}.cls-6{fill:#aaa9b8;}</style><clipPath id="clip-path"><circle class="cls-1" cx="196.67" cy="166.92" r="134.25"/></clipPath></defs><title>contact-icons</title><circle class="cls-2" cx="196.67" cy="166.92" r="134.25"/><g class="cls-3"><rect class="cls-4" x="19.54" y="213.53" width="354.26" height="136.11"/></g><path class="cls-5" d="M283.49,101.86V232H109.85V101.86ZM130,113.37C150.31,134,169.53,153.51,188.79,173c6.3,6.39,9.8,6.39,16.1.08q27.76-27.85,55.45-55.76a48.13,48.13,0,0,0,3.14-4ZM261.69,220.53l1-1.68-44.63-41.71c-19,17.49-21.42,17.46-44.15-1.63l-43.88,45ZM121.88,124.27v83.4l43.86-40.8Zm149.18,84.06v-83l-43.5,42.29Z"/><path class="cls-6" d="M130,113.37H263.48a48.13,48.13,0,0,1-3.14,4q-27.7,27.91-55.45,55.76c-6.29,6.32-9.79,6.31-16.1-.08C169.53,153.51,150.31,134,130,113.37Z"/><path class="cls-6" d="M261.69,220.53H130.06l43.88-45c22.73,19.09,25.17,19.13,44.15,1.63l44.63,41.71Z"/><path class="cls-6" d="M121.88,124.27l43.86,42.6-43.86,40.8Z"/><path class="cls-6" d="M271.05,208.33l-43.5-40.69,43.5-42.29Z"/></svg>