<svg id="Layer_1" data-name="Layer 1" xmlns="http://www.w3.org/2000/svg" xmlns:xlink="http://www.w3.org/1999/xlink" viewBox="0 0 393.34 333.84"><defs><style>.cls-1{fill:none;}.cls-2{fill:#f8f8f8;}.cls-3{clip-path:url(#clip-path);}.cls-4{opacity:0.19;}.cls-5{fill:#3a4257;}.cls-6{fill:#aaa9b8;}</style><clipPath id="clip-path"><circle class="cls-1" cx="196.67" cy="166.92" r="134.25"/></clipPath></defs><title>contact-icons</title><circle class="cls-2" cx="196.67" cy="166.92" r="134.25"/><g class="cls-3"><rect class="cls-4" x="19.54" y="213.53" width="354.26" height="136.11"/></g><path class="cls-5" d="M222.75,249.5c-14.16-.85-29.39-7.42-43-17.66-17.73-13.37-31.7-30.42-44.41-48.41a91.25,91.25,0,0,1-15.56-37c-3.88-22,2.82-40.42,19.25-55.4a32.25,32.25,0,0,1,3.53-2.71c8.69-6,14.64-5.45,20.91,2.87a164.05,164.05,0,0,1,13.39,21.07,22.44,22.44,0,0,1,2.36,11.65c-.23,3.3-2.1,6.9-4.26,9.53-2.6,3.18-6.19,5.59-9.5,8.13-7.5,5.74-9.61,11.81-4.78,20a224.87,224.87,0,0,0,18.36,26c4.09,5.1,9.29,9.4,14.34,13.64,8.19,6.89,17.39,8.48,25.66-1.66,5.28-6.49,12-11,21.12-9.06a14.6,14.6,0,0,1,5.89,2.52c7.09,5.58,14.29,11.08,20.87,17.23,7.11,6.65,6.89,12.88.3,20C255.9,242.52,240.82,249.55,222.75,249.5Z"/><path class="cls-6" d="M196.54,114.85c0-4.57,0-8.61,0-12.64a13.29,13.29,0,0,1,.26-1.88c37.38-5,80.19,36.07,77.69,74.82h-14c-1.71-16.47-7-31.47-19.23-43.31S213.61,115.7,196.54,114.85Z"/><path class="cls-6" d="M244.47,175.71H230.25c-2.71-18.61-13-29.53-32.73-30.5V131C221,130.08,242.9,147.35,244.47,175.71Z"/></svg>