<svg id="Layer_1" data-name="Layer 1" xmlns="http://www.w3.org/2000/svg" viewBox="0 0 238.46 225.15"><defs><style>.cls-1{fill:#58595b;stroke:#58595b;stroke-miterlimit:10;stroke-width:2px;}</style></defs><title>experience</title><path class="cls-1" d="M34.66,76C44.45,68.38,54.27,60.8,64,53.12A48.18,48.18,0,0,1,95,42.53q24.32.11,48.64,0a48.25,48.25,0,0,1,31,10.56q13.15,10.32,26.29,20.65c3.84,3,3.89,4.12.36,7.67-6.68,6.71-13.45,13.33-20,20.14-2.59,2.69-4.62,2.67-7.09-.05-3.28-3.61-6.78-7-11-11.38v5.31q0,40.86,0,81.71c0,5.08-.42,5.49-5.6,5.49H81.21c-5.27,0-5.48-.23-5.48-5.5q0-41.24,0-82.49,0-1.66,0-3.31l-.9-.44q-4.7,4.79-9.41,9.57c-4.31,4.37-4.69,4.34-9,.13Q45.6,89.82,34.66,79.12,34.66,77.56,34.66,76ZM95.74,48.32c-.94,0-2-.17-3-.12a43.12,43.12,0,0,0-26,10c-8.09,6.64-16.43,13-24.29,19.17l19,19c4.09-4.14,8.25-8.58,12.69-12.72,1.43-1.34,3.59-1.89,5.42-2.81.58,1.85,1.65,3.7,1.65,5.55.11,28.66.07,57.32.07,86,0,1.39,0,2.79,0,4.63h7.27c21.4,0,42.8-.09,64.19.08,3.75,0,4.76-1,4.74-4.74-.15-28.92-.11-57.84,0-86.76,0-1.6,1-3.2,1.5-4.79,1.64.77,3.62,1.19,4.85,2.38,4.56,4.39,8.87,9,13.07,13.37l19.3-19.36c-10.11-7.69-20.47-15.88-31.2-23.55a27.79,27.79,0,0,0-16.5-4.94c-3.77,13.78-11.79,22.56-26.71,22.73C109.37,71.58,101.7,64.57,95.74,48.32Zm6.63.08c.5,10.39,9.73,17.84,21.13,17.49,9.77-.3,18.59-8.54,18.46-17.49Z"/></svg>