<svg id="Layer_1" data-name="Layer 1" xmlns="http://www.w3.org/2000/svg" viewBox="0 0 238.46 225.15"><defs><style>.cls-1{fill:#58595b;}</style></defs><title>experience</title><path class="cls-1" d="M145.11,161c0,.93-.07,1.49-.1,2-.2,3.65-1.77,6.42-4.9,7.88s-6.2,1.3-8.76-1.13a78.94,78.94,0,0,1-6.22-7.13,3.85,3.85,0,0,1-.42-4c3-8.3-.89-17.14-8.73-20a3.3,3.3,0,0,1-2.22-2.43,14.49,14.49,0,0,0-11.08-10.31,3.75,3.75,0,0,1-2.18-1.78c-5.4-10.61-18.82-11.36-25.2-1.35-1.33,2.08-2.61,4.2-4,6.41-3.55-2-7.14-2.93-11-2a13.91,13.91,0,0,0-9,6.51c-2,3.33-3.9,6.78-5.91,10.13a2.18,2.18,0,0,1-1.55,1c-3.51.08-7,.1-10.54,0-2.46-.06-3.81-1.62-3.81-4.33q0-24.49,0-49c0-2.92,1.36-4.42,4.1-4.48,3.17-.07,6.36.12,9.52-.07a38.48,38.48,0,0,0,7.56-1.15c5-1.33,9.89-2.94,14.83-4.42.56-.17,1.14-.28,1.76-.43C66,88.75,69.19,94.29,76.52,96.31,82.68,98,88.84,97.69,94.3,93.88c4.34-3,8.37-6.6,12.45-10a3.48,3.48,0,0,1,3.47-1c11.57,2.89,23.17,5.63,34.74,8.56a9.1,9.1,0,0,1,4.17,2.43c8.6,9,17.07,18.2,25.61,27.28q5,5.28,10.09,10.4c3.91,3.9,4.78,8.33,2.3,12.36s-6.9,5.08-11.65,2.62a2.63,2.63,0,0,0-.57-.15c-.94,8.36-8.42,11.93-15.2,6.51.26,4.26-.86,7.76-4.46,9.75S148.45,163.86,145.11,161Z"/><path class="cls-1" d="M209,97q0,12.3,0,24.59c0,2.51-.36,2.9-2.71,2.91-4.93,0-9.87.1-14.79-.06a5,5,0,0,1-3.14-1.49c-11.87-12.69-23.66-25.48-35.53-38.17A8.23,8.23,0,0,0,149,82.5c-12.36-3.09-24.75-6-37.14-9-2.49-.6-4.45.45-6.31,2.09-3.7,3.27-7.44,6.49-11.2,9.69-4,3.42-8.64,4.25-13.58,3.7a8.81,8.81,0,0,1-6.08-3.11c-1.64-2-1.62-3,.33-4.67,6.9-5.84,13.83-11.62,20.76-17.41,3-2.5,6-4.92,9-7.46a11.3,11.3,0,0,1,8-3c11.35.18,22.7,0,34,.16A26,26,0,0,1,156,55.18c10,4.09,19.75,8.63,29.66,12.85a19.16,19.16,0,0,0,6.43,1.52c4.58.23,9.19.06,13.78.08,2.78,0,3,.29,3,3.21Q209,84.92,209,97Z"/><path class="cls-1" d="M82.08,158.57c-6,8.08-14.07,4.84-16.25-2.1-.6.53-1.14,1-1.71,1.52a8.1,8.1,0,0,1-10.83-.41,9.22,9.22,0,0,1-1.41-11.44c1.33-2.27,2.73-4.49,4.08-6.75,1.92-3.19,4.6-4.89,8.17-4.54s5.84,2.4,7.18,5.84c.1.25.25.48.55,1,.85-1.35,1.59-2.5,2.31-3.67,2-3.21,3.91-6.44,5.88-9.64,2.46-4,6.23-5.6,10.1-4.27s5.89,4.78,5.78,9.61a6.72,6.72,0,0,0,.11.82c3.47-1.26,6.83-1.38,9.68,1.41s3.34,6.16,2.19,10.16c.67-.08,1.18-.1,1.68-.2,3.64-.74,6.57.59,8.64,3.78a8.88,8.88,0,0,1,.1,9.8c-1.35,2.34-2.77,4.64-4.19,6.93-2.07,3.32-5,4.92-8.68,4.24s-6-3-6.87-7a12.13,12.13,0,0,0-.4-1.15c-2.43,3.45-5.43,5.26-9.31,4.36S82.81,163.07,82.08,158.57Z"/></svg>