<svg id="Layer_1" data-name="Layer 1" xmlns="http://www.w3.org/2000/svg" viewBox="0 0 168.61 155.62"><defs><style>.cls-1{fill:#58595b;fill-rule:evenodd;}</style></defs><title>service-icons</title><path class="cls-1" d="M78.91,59.59h10.7v-4H78.91Zm10.62,1.34H78.91S61.44,78.15,61.44,95c0,17.9,18.31,19.32,18.31,19.32s5.46.91,8.86,0c0,0,18.56-2.18,18.56-19.23S89.53,60.93,89.53,60.93Zm.79,36.26a6.22,6.22,0,0,1-1.75,2.18A7.59,7.59,0,0,1,86,100.68c-.13,0-.26.05-.39.08v3H82.92v-2.62h-.1a11.61,11.61,0,0,1-2.11-.18,12.3,12.3,0,0,1-1.73-.45,7.32,7.32,0,0,1-1.25-.54,3.67,3.67,0,0,1-.72-.5,1.25,1.25,0,0,1-.32-.64,5.85,5.85,0,0,1-.09-1.2,8.34,8.34,0,0,1,0-.88,2.4,2.4,0,0,1,.11-.58.61.61,0,0,1,.2-.32.49.49,0,0,1,.3-.09,1.4,1.4,0,0,1,.67.28,12,12,0,0,0,1.11.62,10.08,10.08,0,0,0,1.62.62,7.69,7.69,0,0,0,2.18.28,4.93,4.93,0,0,0,1.46-.2,3.33,3.33,0,0,0,1.1-.55,2.4,2.4,0,0,0,.69-.89,2.8,2.8,0,0,0,.24-1.18,2.07,2.07,0,0,0-.41-1.28,4.23,4.23,0,0,0-1.06-.95,11.45,11.45,0,0,0-1.48-.78l-1.72-.78A14.14,14.14,0,0,1,79.94,90a7,7,0,0,1-1.49-1.24,5.85,5.85,0,0,1-1.06-1.71A6.16,6.16,0,0,1,77,84.7a6.28,6.28,0,0,1,.58-2.78,5.69,5.69,0,0,1,1.58-2,6.7,6.7,0,0,1,2.35-1.18,9.59,9.59,0,0,1,1.43-.3V75.64H85.6v2.8l.32,0a11.24,11.24,0,0,1,1.46.32,8,8,0,0,1,1.21.45,2.82,2.82,0,0,1,.7.42,1.23,1.23,0,0,1,.23.29,1.57,1.57,0,0,1,.1.32,3.65,3.65,0,0,1,.06.49c0,.2,0,.44,0,.74s0,.61,0,.83a3.13,3.13,0,0,1-.08.56.72.72,0,0,1-.17.33.43.43,0,0,1-.3.1,1.42,1.42,0,0,1-.6-.23c-.27-.16-.61-.33-1-.52a10.18,10.18,0,0,0-1.38-.5,6.13,6.13,0,0,0-1.72-.23,4,4,0,0,0-1.28.18,2.63,2.63,0,0,0-.91.49,1.91,1.91,0,0,0-.54.76,2.41,2.41,0,0,0-.18.93,2,2,0,0,0,.4,1.27,3.74,3.74,0,0,0,1.07,1,11.2,11.2,0,0,0,1.52.78l1.73.77A19.09,19.09,0,0,1,88,88.9a7.15,7.15,0,0,1,1.51,1.24,5.79,5.79,0,0,1,1.07,1.7,6,6,0,0,1,.41,2.3A6.77,6.77,0,0,1,90.32,97.19Zm-.87-42.95,5.43-13.38s-3.42,2.84-5.43,2.84-5.18-2.76-5.18-2.76-3.42,2.76-5.43,2.76S73.56,41,73.56,41l5.52,13.21Z"/></svg>