<svg id="Layer_1" data-name="Layer 1" xmlns="http://www.w3.org/2000/svg" viewBox="0 0 168.61 155.62"><defs><style>.cls-1{fill:#58595b;fill-rule:evenodd;}</style></defs><title>service-icons</title><path class="cls-1" d="M117.08,79.42l-14.9-6V61.5l14.9-6a3,3,0,0,1,3,3V76.43A3,3,0,0,1,117.08,79.42Zm-28.3-20.9a13.43,13.43,0,1,1,13.41-13.44A13.42,13.42,0,0,1,88.78,58.52ZM62,58.52A13.43,13.43,0,1,1,75.37,45.08,13.42,13.42,0,0,1,62,58.52Zm37.24,0V85.39H82.57a7.84,7.84,0,0,1-2.85,5.82H81.4L93.29,118h-3l-4-8.94H78.44V124h-3V109.08H67.41l-4,8.94h-3L72.5,91.21h1.12a7.83,7.83,0,0,1-2.85-5.82H51.53V58.52H99.2ZM75.47,92.14c-.12,0-.24-.1-.36-.13l-6.35,14.1h6.71Zm3-.22V106.1H85L78.71,91.82Z"/></svg>