<svg id="Layer_1" data-name="Layer 1" xmlns="http://www.w3.org/2000/svg" viewBox="0 0 168.61 155.62"><defs><style>.cls-1{fill:#58595b;fill-rule:evenodd;}</style></defs><title>service-icons</title><path class="cls-1" d="M111.79,116.61v-6.47h-.08c0-.54.08-1.07.08-1.61V73a27.48,27.48,0,1,0-55,0v35.57c0,.54,0,1.08.08,1.61h-.08v6.47s-16.17-.27-16.17-17.78c0-9.94,5.2-14.32,9.7-16.25V73a34,34,0,1,1,67.91,0v9.62c4.5,1.93,9.7,6.31,9.7,16.25C128,116.34,111.79,116.61,111.79,116.61Zm-48.5,0H60.05V81h3.23Zm45.27,0h-3.23V81h3.23Z"/></svg>