<svg id="Layer_1" data-name="Layer 1" xmlns="http://www.w3.org/2000/svg" viewBox="0 0 168.61 155.62"><defs><style>.cls-1{fill:#58595b;fill-rule:evenodd;}</style></defs><title>service-icons</title><path class="cls-1" d="M41.76,68.83h85.17c2.06-.9,2-2.82,0-4.11S84.27,34,84.27,34,43.81,63.44,41.76,64.73,39.58,67.94,41.76,68.83ZM84.27,48.54a6.16,6.16,0,1,1-6.16,6.16A6.16,6.16,0,0,1,84.27,48.54Zm-40.39,66h80.93v-3.44H43.88Zm17.52-7V76.16h3.45V72.28H47.26v3.54H50.7v31.71Zm28.3,0V75.94h3.45V72.5H75.55v3.31H79v31.71ZM40.37,121.61h88v-3.22h-88Zm77.41-14.08V75.94h3.44V72.5H103.62v3.31h3.45v31.71Z"/></svg>