<svg id="Layer_1" data-name="Layer 1" xmlns="http://www.w3.org/2000/svg" xmlns:xlink="http://www.w3.org/1999/xlink" viewBox="0 0 346.53 267.78"><defs><style>.cls-1{fill:none;}.cls-2{fill:#f8f8f8;}.cls-3{clip-path:url(#clip-path);}.cls-4{opacity:0.19;}.cls-5{fill:#3a4257;}</style><clipPath id="clip-path"><circle class="cls-1" cx="173.27" cy="133.89" r="116.04"/></clipPath></defs><title>service-icons</title><circle class="cls-2" cx="173.27" cy="133.89" r="116.04"/><g class="cls-3"><rect class="cls-4" x="20.16" y="174.18" width="306.22" height="117.65"/></g><path class="cls-5" d="M180.78,163.64l11-19.81c5,2.9,9.38,6.38,14.34,8.09,13.49,4.64,22.06,13,24.18,27.51.7,4.75,2.35,9.35,3.14,14.08,1,5.89-1,8.44-6.94,8.45q-53.11.16-106.22.05c-6.24,0-8.25-2.55-7.11-8.86,1-5.55,2.84-11,3.75-16.53,2.28-13.86,11.77-20.32,23.86-24.8,4.75-1.76,9-5,14-7.9l11.09,19.86,2.09-.23,1-17.95h8.63l.82,17.91Z"/><path class="cls-5" d="M201,95.12c-.21,12-2.07,22.24-7.92,31.32-10.59,16.43-29.41,16.35-39.76-.2-7.68-12.29-9.29-26-7-39.89S160,64.93,175.6,65.78c14.1.77,23.62,9.54,25.12,23.23C201,91.5,201,94,201,95.12Z"/></svg>