<svg id="Layer_1" data-name="Layer 1" xmlns="http://www.w3.org/2000/svg" xmlns:xlink="http://www.w3.org/1999/xlink" viewBox="0 0 346.53 267.78"><defs><style>.cls-1{fill:none;}.cls-2{fill:#f8f8f8;}.cls-3{clip-path:url(#clip-path);}.cls-4{opacity:0.19;}.cls-5{fill:#d3d2d9;}.cls-6{fill:#aaa9b8;}.cls-7{fill:#fdfdfd;}.cls-8{fill:#f5f5f5;}.cls-9{fill:#3a4257;}.cls-10{font-size:37.7px;fill:#fff;font-family:Roboto-Bold, Roboto;font-weight:700;}</style><clipPath id="clip-path"><circle class="cls-1" cx="173.27" cy="133.89" r="116.04"/></clipPath></defs><title>service-icons</title><circle class="cls-2" cx="173.27" cy="133.89" r="116.04"/><g class="cls-3"><rect class="cls-4" x="20.16" y="174.18" width="306.22" height="117.65"/></g><path class="cls-5" d="M83.63,170.73V78.43a6,6,0,0,1,.62-2.51h0a6.45,6.45,0,0,1,3-3.19h0A8.21,8.21,0,0,1,90.43,72h166a3.68,3.68,0,0,1,1.36.32h0a7.13,7.13,0,0,1,4.22,4.8h0a29.49,29.49,0,0,1,.77,6.07c0,29.21.07,59.15.07,88.26-.39.37-.32-.1-.32.33,0,1.86,0,3.72,0,5.59l-.49,0c0-1.82,0-3.64,0-5.46,0-.9-.32-1.2-1.2-1.18-2.18,0-4.37,0-6.55,0q0-43.47,0-86.93c0-1.94,0-1.94-1.94-1.94H94c-.41,0-.83,0-1.24,0-.83-.07-1.2.29-1.12,1.12,0,.09,0,.18,0,.27q0,43.74,0,87.48ZM173.34,79.4A2.53,2.53,0,0,0,175.77,77a2.69,2.69,0,0,0-2.58-2.51A2.55,2.55,0,0,0,170.84,77,2.24,2.24,0,0,0,173.34,79.4Z"/><path class="cls-6" d="M83.63,170.73h8c.55,0,1.1,0,1.66,0H253c.69,0,1.38,0,2.07,0,2.2,0,4.39,0,6.59,0,.88,0,1.23.29,1.21,1.18,0,1.82,0,3.64,0,5.46a25.24,25.24,0,0,1-.78,2.77,13.3,13.3,0,0,1-12.75,8.42c-7,0-14,0-21,0l-41.31,0a2,2,0,0,0-1.33-.22H161.59a2.09,2.09,0,0,0-1.34.2H97.57c-7.29,0-12.66-4.4-13.7-11.19,0-.4.12-.81-.23-1.13Zm90,11.58a2.67,2.67,0,0,0,2.93-2.6,2.85,2.85,0,0,0-2.69-2.89,2.69,2.69,0,0,0-2.82,2.59A2.61,2.61,0,0,0,173.59,182.32Z"/><path class="cls-6" d="M135.91,213.11c.21-1.87.53-3.66,2.06-5a6.56,6.56,0,0,1,4.56-1.87c5.76,0,11.51,0,17.27,0h26.78l16.21,0c4.67,0,7.12,2.31,7.4,6.91h-2.48c0-.81-.62-.52-1-.53q-13.59,0-27.19,0c-.37,0-1-.29-1,.53Z"/><path class="cls-6" d="M178.55,213.11c0-.81.62-.52,1-.53q13.59,0,27.19,0c.37,0,1-.29,1,.53Z"/><path class="cls-7" d="M254.2,170.72c-.69,0-1.37,0-2.06,0H93.27c-.55,0-1.1,0-1.65,0q0-43.74,0-87.48c0-.09,0-.18,0-.27-.08-.83.28-1.19,1.12-1.12.41,0,.82,0,1.24,0H252.28c1.94,0,1.94,0,1.94,1.94Q254.21,127.25,254.2,170.72ZM97.14,149c0,3.12,0,6.24,0,9.35,0,1.25.58,1.56,1.61,1.37a17.94,17.94,0,0,1,3.28-.2c8.94,0,17.88,0,26.82,0,22.51.12,45-.29,67.52.21.89,0,1.5-.19,1.48-1.29,0-3.16,0-6.33-.05-9.49q0-25.09,0-50.18c0-3.14,0-3.14-3.12-3.14H98.53c-.79,0-1.45-.14-1.45,1.12Q97.16,122.83,97.14,149Zm75.63-57.77h77.15a9.77,9.77,0,0,1,1.1,0c.94.11,1.32-.24,1.27-1.23-.07-1.37,0-2.75,0-4.13,0-2.29.23-2.08-2.06-2.08H95.49a8.18,8.18,0,0,1-.82,0c-.82-.08-1.16.24-1.13,1.09,0,1.47,0,2.93,0,4.4,0,1.93,0,1.93,1.92,1.94Zm30,38.26.35.16c.48-.59,1-1.16,1.44-1.77a3.93,3.93,0,0,1,3.46-1.75c8.71.09,17.42,0,26.14,0,1.88,0,1.88,0,1.88-1.79,0-3.16-.05-6.33,0-9.49,0-1.26-.34-1.63-1.62-1.63-10,0-20.08,0-30.13,0-.18,0-.37,0-.55,0-.67,0-1,.22-1,.95C202.78,119.28,202.77,124.36,202.77,129.44Zm46.67,17.73c.32-5.13.39-10.06.37-15,0-1.06-.47-1.32-1.42-1.32q-12.1,0-24.2,0c-1,0-1.37.29-1.35,1.33.05,3.35.07,6.69,0,10,0,1.21.33,1.57,1.55,1.56,6.46-.05,12.93.07,19.39-.08,2.28-.05,4,.3,4.93,2.59C248.8,146.57,249.1,146.78,249.44,147.18Zm-46.66,14,.36.08a4.64,4.64,0,0,0,.51-.62,3.93,3.93,0,0,1,4-2c6.68.11,13.37,0,20.05.07,1.24,0,1.57-.38,1.53-1.57-.08-2.56-.05-5.13,0-7.69,0-.9-.3-1.2-1.19-1.19q-12,0-24,0c-.9,0-1.21.31-1.19,1.2,0,2.29,0,4.58,0,6.87Q202.78,158.68,202.78,161.13Zm-80.6,6.33h23.1a5.84,5.84,0,0,0,1.37,0c.93-.23,1.77-.71,1.85-1.77a2.06,2.06,0,0,0-1.5-2.07,5,5,0,0,0-2-.25h-34.1c-3.94,0-7.88,0-11.83,0-1.77,0-3,1-3,2.22s1.23,1.9,3,1.9ZM232.34,101.1H216.81c-.94,0-1.65.23-1.68,1.33s.67,1.46,1.69,1.46q15.39,0,30.78,0c1,0,1.88-.24,1.91-1.44s-1-1.34-1.92-1.34ZM200.85,103a5.26,5.26,0,0,0,5.28,5.22c3.2-.14,5.18-2,5.38-5.44a5.27,5.27,0,0,0-5.15-5.21A5.34,5.34,0,0,0,200.85,103Z"/><path class="cls-7" d="M173.34,79.4a2.24,2.24,0,0,1-2.5-2.42,2.55,2.55,0,0,1,2.35-2.52A2.69,2.69,0,0,1,175.77,77,2.53,2.53,0,0,1,173.34,79.4Z"/><path class="cls-5" d="M186.58,206.16H159.79q0-8.79.06-17.58a2.07,2.07,0,0,1,1.33-.2h24a1.94,1.94,0,0,1,1.32.22Q186.55,197.37,186.58,206.16Z"/><path class="cls-7" d="M173.12,182.32a2.61,2.61,0,0,1-2.57-2.91,2.69,2.69,0,0,1,2.8-2.59,2.85,2.85,0,0,1,2.68,2.89A2.66,2.66,0,0,1,173.12,182.32Z"/><path class="cls-6" d="M172.76,91.18H95.47c-1.92,0-1.92,0-1.92-1.94,0-1.47,0-2.94,0-4.4,0-.85.31-1.17,1.13-1.09a8.18,8.18,0,0,0,.82,0H250.22c2.29,0,2-.21,2.06,2.08,0,1.38-.05,2.75,0,4.13,0,1-.34,1.33-1.27,1.23a9.77,9.77,0,0,0-1.1,0Zm-56-4.9H101.95a1.08,1.08,0,0,0-1.18,1.09c0,.71.42,1.07,1.11,1.12.32,0,.64,0,1,0h28c.32,0,.64,0,1,0a1,1,0,0,0,1-1,1.06,1.06,0,0,0-1-1.14,6.83,6.83,0,0,0-1.1,0Zm-18,1a1.46,1.46,0,0,0-1.6-1.49,1.48,1.48,0,0,0-1.54,1.7A1.4,1.4,0,0,0,97.21,89C98.26,89.06,98.8,88.52,98.82,87.32Z"/><path class="cls-5" d="M97.14,149c.5,0,1,0,1.51,0h97.2c.64,0,1.28-.06,1.92-.09,0,3.16,0,6.33.05,9.49,0,1.1-.59,1.31-1.48,1.29-22.51-.51-45-.09-67.52-.21-8.94,0-17.88,0-26.82,0a17.94,17.94,0,0,0-3.28.2c-1,.19-1.63-.12-1.61-1.37C97.16,155.19,97.13,152.07,97.14,149Zm55,7.14h42.48a.6.6,0,0,0,.68-.51c.47-1.77,0-2.48-1.88-2.48H110a.61.61,0,0,0-.65.37,1.74,1.74,0,0,0,1.71,2.63Zm-45.2-1.84c0-.73,0-1.47,0-2.2a.64.64,0,0,0-.59-.75c-2-.42-2.54,0-2.54,2a18.85,18.85,0,0,1,0,2.33c-.17,1.32.3,1.72,1.64,1.69,1.18,0,1.71-.28,1.52-1.53A10.54,10.54,0,0,1,106.94,154.25Zm-4.31,0c0-3,0-3-2.06-3-.76,0-1.06.22-1,1a26.79,26.79,0,0,1,0,3.55c-.1,1.2.39,1.38,1.47,1.43,1.33.06,1.84-.34,1.64-1.66A8.82,8.82,0,0,1,102.63,154.26Z"/><path class="cls-5" d="M202.77,129.44c0-5.08,0-10.17,0-15.25,0-.73.34-1,1-.95.18,0,.37,0,.55,0,10,0,20.09,0,30.13,0,1.28,0,1.65.37,1.62,1.63-.08,3.16,0,6.33,0,9.49,0,1.79,0,1.79-1.88,1.79-8.71,0-17.43,0-26.14,0a3.93,3.93,0,0,0-3.46,1.75c-.46.6-1,1.18-1.44,1.77Z"/><path class="cls-5" d="M249.44,147.18c-.34-.4-.64-.61-.75-.89-.91-2.29-2.64-2.64-4.93-2.59-6.46.15-12.93,0-19.39.08-1.22,0-1.58-.35-1.55-1.56.08-3.34.06-6.69,0-10,0-1,.35-1.33,1.35-1.33q12.1,0,24.2,0c1,0,1.42.26,1.42,1.32C249.83,137.11,249.76,142,249.44,147.18Z"/><path class="cls-5" d="M202.78,161.13q0-2.44,0-4.89c0-2.29,0-4.58,0-6.87,0-.89.29-1.2,1.19-1.2q12,0,24,0c.89,0,1.21.3,1.19,1.19,0,2.56-.07,5.13,0,7.69,0,1.19-.3,1.58-1.53,1.57-6.68-.06-13.37,0-20.05-.07a3.93,3.93,0,0,0-4,2,4.64,4.64,0,0,1-.51.62Z"/><path class="cls-5" d="M122.18,167.45H99.08c-1.81,0-3-.75-3-1.9s1.23-2.2,3-2.22c3.94,0,7.88,0,11.83,0H145a5,5,0,0,1,2,.25,2.06,2.06,0,0,1,1.5,2.07c-.08,1.05-.92,1.54-1.85,1.77a5.84,5.84,0,0,1-1.37,0Z"/><path class="cls-5" d="M232.34,101.1h15.25c1,0,1.95,0,1.92,1.34s-.88,1.45-1.91,1.44q-15.39,0-30.78,0c-1,0-1.72-.29-1.69-1.46s.74-1.33,1.68-1.33Z"/><path class="cls-5" d="M200.85,103a5.34,5.34,0,0,1,5.51-5.43,5.27,5.27,0,0,1,5.15,5.21c-.2,3.44-2.18,5.3-5.38,5.44A5.26,5.26,0,0,1,200.85,103Z"/><path class="cls-7" d="M116.79,86.29h14a6.83,6.83,0,0,1,1.1,0,1.06,1.06,0,0,1,1,1.14,1,1,0,0,1-1,1c-.32,0-.64,0-1,0h-28c-.32,0-.64,0-1,0-.69-.05-1.16-.41-1.11-1.12a1.08,1.08,0,0,1,1.18-1.09h14.84Z"/><path class="cls-8" d="M98.82,87.32c0,1.2-.56,1.74-1.61,1.73a1.4,1.4,0,0,1-1.53-1.53,1.48,1.48,0,0,1,1.54-1.7A1.46,1.46,0,0,1,98.82,87.32Z"/><path class="cls-5" d="M152.13,156.09H111a1.74,1.74,0,0,1-1.71-2.63.61.61,0,0,1,.65-.37h83.46c1.83,0,2.35.71,1.88,2.48a.6.6,0,0,1-.68.51H152.13Z"/><path class="cls-5" d="M106.94,154.25a10.33,10.33,0,0,0,0,1.51c.19,1.25-.35,1.5-1.52,1.53-1.34,0-1.81-.37-1.64-1.69a18.85,18.85,0,0,0,0-2.33c0-2,.54-2.38,2.54-2a.64.64,0,0,1,.59.75C106.93,152.79,106.94,153.52,106.94,154.25Z"/><path class="cls-5" d="M102.63,154.26a8.88,8.88,0,0,0,0,1.36c.21,1.32-.31,1.72-1.64,1.66-1.08,0-1.58-.23-1.47-1.43a26.79,26.79,0,0,0,0-3.55c0-.79.27-1,1-1C102.63,151.26,102.63,151.23,102.63,154.26Z"/><path class="cls-9" d="M194.64,95.59H98.53c-.79,0-1.45-.14-1.45,1.12q.08,26.12.05,52.25c.5,0,1,0,1.51,0h97.2c.64,0,1.28-.06,1.92-.09V98.73C197.76,95.59,197.76,95.59,194.64,95.59Z"/><text class="cls-10" transform="translate(129.95 129.01)">&lt;/&gt;</text></svg>