<svg id="Layer_1" data-name="Layer 1" xmlns="http://www.w3.org/2000/svg" xmlns:xlink="http://www.w3.org/1999/xlink" viewBox="0 0 346.53 267.78"><defs><style>.cls-1{fill:none;}.cls-2{fill:#f8f8f8;}.cls-3{clip-path:url(#clip-path);}.cls-4{opacity:0.19;}.cls-5{fill:#3a4257;}</style><clipPath id="clip-path"><circle class="cls-1" cx="173.27" cy="133.89" r="116.04"/></clipPath></defs><title>service-icons</title><circle class="cls-2" cx="173.27" cy="133.89" r="116.04"/><g class="cls-3"><rect class="cls-4" x="20.16" y="174.18" width="306.22" height="117.65"/></g><path class="cls-5" d="M220.2,133.15c-9.79-23.67-19.92-47.2-30-70.75-2.81-6.56-2.91-6.52-11-6.07,0,22-.07,43.84,0,65.65,0,1,1.63,2,2.3,3.12,1.7,2.84,4.16,5.59,4.7,8.67.85,4.86-3,9.39-7.62,10.62a10.86,10.86,0,0,1-12.39-5.57,10.2,10.2,0,0,1,3.17-13.09c2.69-1.84,3.2-3.88,3.15-6.75-.12-6.75,0-13.5,0-20.25q0-21.08-.05-42.12c-7.84-1.27-7.88-1.29-10.64,5.14-10.11,23.54-20.29,47-30.13,70.7a12.43,12.43,0,0,0,.13,9c5.87,12.66,12.3,25.07,18.52,37.56,2,4.06,5.57,5.44,11.36,3.87a53.45,53.45,0,0,1,26.88-.14c6.53,1.62,10.42.73,12.69-3.87,6.12-12.38,12.52-24.63,18.41-37.12A11.86,11.86,0,0,0,220.2,133.15Z"/><path class="cls-5" d="M193.41,188.72q-17.68-.08-35.35,0H158a13.06,13.06,0,0,0-8.35,3.29c-4.29,3.71-8.86,7.13-8.65,14.17.13,4.07,1.56,5.77,5.6,5.68,6.46-.14,12.93-.08,19.4-.08q19.62,0,39.24,0c2.9,0,5-.61,5.3-4.14C211.24,198.65,202.42,188.77,193.41,188.72Z"/></svg>